<?xml version="1.0" standalone="no"?>
<!DOCTYPE svg PUBLIC "-//W3C//DTD SVG 20010904//EN"
 "http://www.w3.org/TR/2001/REC-SVG-20010904/DTD/svg10.dtd">
<svg version="1.0" xmlns="http://www.w3.org/2000/svg"
 width="480.000000pt" height="270.000000pt" viewBox="0 0 480.000000 270.000000"
 preserveAspectRatio="xMidYMid meet">

<g transform="translate(0.000000,270.000000) scale(0.100000,-0.100000)"
fill="#000000" stroke="none">
<path d="M0 2433 l0 -268 55 -35 c30 -19 55 -42 55 -50 0 -8 -9 -116 -20 -240
-11 -124 -25 -281 -30 -350 -6 -69 -12 -141 -15 -160 -2 -19 -9 -105 -15 -190
-7 -85 -16 -168 -21 -184 -5 -16 -9 -46 -9 -67 0 -35 3 -39 26 -39 14 0 23 -4
19 -9 -3 -6 -14 -8 -25 -6 -16 3 -20 -2 -20 -25 0 -19 6 -30 17 -33 17 -4 17
-5 1 -6 -16 -1 -18 -28 -18 -386 l0 -385 2400 0 2400 0 0 1350 0 1350 -2400 0
-2400 0 0 -267z m2260 -154 c0 -12 -7 -48 -16 -81 -20 -79 -14 -92 21 -40 31
48 134 115 168 110 32 -5 31 -25 -1 -42 -34 -18 -142 -114 -142 -127 0 -4 18
-14 41 -20 58 -18 109 -86 133 -178 10 -39 16 -74 13 -77 -3 -3 -14 -1 -25 5
-12 6 -41 11 -66 11 -32 0 -46 4 -46 14 0 7 -21 21 -47 31 -25 10 -66 38 -91
62 -33 34 -47 42 -56 33 -15 -15 65 -89 134 -123 l50 -25 -35 -21 c-33 -19
-38 -19 -59 -6 -34 23 -162 30 -213 13 -40 -15 -43 -14 -91 14 -94 54 -203 54
-300 0 -41 -23 -121 -110 -123 -135 -1 -7 -7 20 -14 58 -7 39 -15 88 -19 110
-7 37 -4 45 41 107 67 93 159 146 276 160 77 9 214 6 334 -9 51 -6 52 -5 58
23 12 52 37 129 48 142 15 18 27 15 27 -9z m-945 -241 c-6 -16 -54 -19 -56 -3
-2 14 44 36 54 26 4 -4 5 -14 2 -23z m-102 -3 c-3 -9 -8 -14 -10 -11 -3 3 -2
9 2 15 9 16 15 13 8 -4z m143 -13 c-9 -9 -37 8 -31 18 5 8 11 7 21 -1 8 -6 12
-14 10 -17z m2478 -217 c4 -82 11 -220 16 -305 5 -85 12 -202 15 -260 3 -58 8
-149 12 -202 l6 -98 -500 0 -501 0 -6 263 c-4 144 -7 318 -9 386 l-2 124 140
28 c295 57 471 114 670 214 l140 70 6 -35 c4 -19 9 -102 13 -185z m-2480 193
c-3 -4 1 -8 8 -8 8 0 6 -5 -5 -11 -9 -6 -15 -14 -13 -18 3 -4 -1 -8 -9 -8 -13
0 -13 3 0 17 10 11 11 20 5 26 -7 7 -6 11 4 11 8 0 13 -4 10 -9z m-38 -27 c-9
-10 -14 -21 -11 -24 3 -4 2 -5 -2 -2 -12 9 -12 34 0 32 7 -1 11 4 9 11 -1 8 2
11 8 7 8 -5 6 -13 -4 -24z m-86 4 c0 -8 -37 -43 -79 -73 -22 -16 -37 -33 -33
-37 4 -5 2 -5 -4 -2 -6 4 -18 -1 -25 -11 -13 -15 -15 -25 -10 -55 0 -4 37 11
82 34 45 23 84 38 89 33 4 -5 10 -29 12 -52 3 -42 2 -44 -32 -57 -140 -52
-142 -54 -131 -151 1 -7 31 -9 95 -6 l93 4 7 -32 c3 -18 6 -50 6 -72 0 -32 -3
-39 -15 -34 -9 3 -50 8 -93 12 l-78 7 4 -40 c4 -41 2 -39 90 -73 17 -7 32 -16
32 -20 0 -4 16 -11 35 -14 31 -6 35 -11 35 -36 0 -17 -1 -30 -3 -30 -2 0 -42
16 -91 35 -48 20 -91 33 -96 30 -23 -14 -49 16 -55 63 -18 148 -29 209 -41
227 -17 26 -29 155 -14 155 5 0 10 13 10 30 0 31 5 36 125 124 54 40 85 55 85
41z m157 -122 c0 -7 -3 -11 -5 -8 -3 3 -14 -3 -25 -12 -11 -10 -17 -12 -13 -5
4 6 2 13 -3 13 -26 3 -30 4 -36 11 -4 4 5 5 20 2 14 -2 24 -1 21 4 -2 4 6 8
18 8 12 0 23 -6 23 -13z m518 -50 c71 -37 123 -105 149 -193 40 -136 -6 -265
-117 -326 -46 -25 -62 -29 -137 -28 -89 0 -119 9 -189 61 -50 38 -91 133 -91
211 0 227 201 371 385 275z m561 -19 c77 -37 131 -132 141 -249 17 -210 -149
-339 -307 -237 -137 89 -132 384 9 479 41 28 107 30 157 7z m303 -97 c10 -15
12 -39 7 -101 -9 -109 -48 -194 -105 -230 -44 -28 -51 -31 -51 -17 0 5 19 18
41 29 30 15 47 32 60 63 l19 42 -38 -6 -38 -7 10 55 10 55 38 -6 38 -7 0 49
c0 46 -3 51 -40 77 -32 22 -40 35 -40 59 l0 30 38 -33 c20 -18 43 -41 51 -52z
m-609 -160 c0 -151 81 -267 209 -299 l52 -13 -24 -45 c-24 -47 -81 -84 -142
-94 -66 -11 -90 -18 -104 -29 -11 -9 -13 -9 -8 0 4 6 3 15 -3 18 -6 4 -9 1 -8
-6 2 -7 -2 -13 -9 -14 -6 0 -15 -4 -20 -9 -5 -5 -3 -6 5 -2 6 4 12 3 12 -2 0
-6 -6 -12 -13 -15 -8 -3 -20 -27 -27 -54 -6 -26 -14 -56 -17 -65 -3 -13 -15
-18 -44 -18 -34 0 -42 5 -59 32 -11 18 -22 46 -26 62 -3 16 -16 38 -28 48 -11
9 -16 17 -11 18 6 0 16 -5 21 -10 7 -7 11 -6 11 4 0 10 -9 13 -29 10 -16 -2
-31 2 -34 9 -2 7 -26 13 -52 14 -26 1 -48 7 -50 12 -2 5 -10 7 -17 5 -8 -3
-37 7 -66 22 -52 29 -80 69 -93 135 -3 15 -17 37 -31 50 -13 13 -25 28 -25 34
0 5 17 -7 38 -27 68 -66 114 -83 227 -83 87 0 106 3 149 25 108 55 166 152
166 280 0 68 1 70 25 70 24 0 25 -2 25 -63z m-2010 -685 c0 -13 -12 -22 -22
-16 -10 6 -1 24 13 24 5 0 9 -4 9 -8z m133 1 c3 -5 -2 -15 -11 -23 -14 -13
-15 -12 -9 3 5 15 0 17 -44 17 -35 0 -48 -3 -43 -12 4 -7 3 -8 -4 -4 -27 16
-9 26 47 26 33 0 62 -3 64 -7z m234 -8 c0 -8 -5 -15 -11 -15 -6 0 -6 -4 1 -11
25 -25 2 -36 -77 -38 l-80 -2 2 40 1 41 82 0 c66 0 82 -3 82 -15z m234 -8 c-5
-13 -8 -51 -6 -85 2 -55 1 -60 -12 -45 -8 10 -12 12 -8 6 3 -7 2 -13 -4 -13
-5 0 -9 9 -8 19 0 11 5 17 9 15 4 -3 8 2 8 10 0 9 -4 16 -9 16 -15 0 -26 -23
-24 -50 l2 -25 -8 25 c-4 14 -4 30 0 36 5 6 3 17 -4 24 -10 12 -9 12 3 3 26
-19 44 0 36 38 -4 24 -3 30 4 19 8 -12 10 -11 10 8 0 12 4 22 10 22 6 0 6 -9
1 -23z m93 8 c-4 -8 -7 -15 -9 -15 -2 0 -5 7 -9 15 -3 9 0 15 9 15 9 0 12 -6
9 -15z m146 -2 c0 -6 -5 -15 -12 -19 -7 -4 -8 -3 -4 4 7 12 1 14 -41 15 -13 0
-23 3 -23 8 0 4 18 7 40 6 24 -1 40 -6 40 -14z m-290 -14 c0 8 3 11 6 8 4 -4
2 -13 -4 -20 -7 -8 -10 -17 -7 -20 3 -4 2 -5 -2 -2 -4 3 -8 16 -10 28 -2 17
-1 19 7 7 8 -12 10 -13 10 -1z m217 -36 c-3 -10 -5 -4 -5 12 0 17 2 24 5 18 2
-7 2 -21 0 -30z m-867 -7 c0 -6 -5 -3 -11 7 -6 9 -15 14 -21 11 -7 -4 -8 -2
-4 5 9 14 36 -3 36 -23z m166 19 c4 -8 10 -12 15 -9 5 3 6 10 3 16 -4 7 -2 8
5 4 6 -4 8 -13 4 -19 -4 -7 2 -5 12 3 10 8 16 10 12 3 -4 -6 -1 -13 5 -16 7
-3 -24 -4 -69 -4 -44 1 -76 5 -70 9 7 4 20 5 31 2 14 -5 16 -3 11 7 -6 11 -5
12 6 2 18 -18 34 -16 19 2 -9 11 -9 15 -1 15 6 0 14 -7 17 -15z m762 -10 c-17
-14 -48 -24 -48 -15 0 5 7 10 16 10 8 0 12 4 9 10 -3 6 1 7 10 4 9 -4 15 -8
13 -9z m-38 -47 c-23 -21 -25 -34 -8 -44 6 -4 16 0 23 9 9 12 14 14 23 5 7 -7
12 -17 12 -22 0 -6 -5 -4 -10 4 -5 8 -10 10 -10 4 0 -18 -60 -13 -61 5 0 9 -2
25 -4 37 -4 17 1 21 25 21 30 0 30 0 10 -19z m-320 -38 c0 -11 -7 -20 -15 -20
-8 0 -15 7 -15 16 0 8 5 12 10 9 6 -3 10 -1 10 4 0 6 2 11 5 11 3 0 5 -9 5
-20z m1383 6 c9 -7 17 -18 17 -23 0 -5 14 -22 30 -37 17 -15 28 -32 24 -37 -5
-8 30 -10 115 -8 l121 4 38 42 c54 62 80 64 126 13 l38 -42 103 7 103 7 231
-104 232 -103 -7 -85 c-3 -47 -8 -86 -9 -88 -3 -3 -74 -14 -245 -37 -556 -73
-1122 -149 -1275 -169 -55 -8 -103 -11 -108 -7 -4 4 -42 63 -84 132 -133 217
-123 193 -116 292 5 78 8 88 27 92 26 5 274 17 426 21 135 3 123 1 114 15 -4
7 -9 30 -11 53 -4 45 14 68 46 59 10 -3 22 0 25 6 9 14 17 13 39 -3z m-1953
-13 c0 -14 -2 -15 -9 -4 -7 11 -9 11 -14 0 -4 -10 -6 -9 -6 4 -1 9 6 17 14 17
8 0 15 -8 15 -17z m160 3 c0 -6 4 -5 9 3 6 9 11 10 15 2 4 -6 2 -12 -3 -12 -6
-1 -17 -2 -23 -3 -7 -1 -16 3 -20 9 -5 6 -8 5 -8 -3 0 -7 -4 -10 -10 -7 -18
11 -11 21 15 21 14 0 25 -5 25 -10z m293 -7 c-8 -8 -13 -7 -18 2 -5 8 -4 10 3
5 7 -4 12 -2 12 5 0 7 3 9 7 6 4 -4 2 -12 -4 -18z m339 6 c0 -5 -5 -11 -11
-13 -6 -2 -11 4 -11 13 0 9 5 15 11 13 6 -2 11 -8 11 -13z m-467 -5 c3 -5 -1
-10 -9 -10 -9 0 -16 5 -16 10 0 6 4 10 9 10 6 0 13 -4 16 -10z m-312 -230 c3
6 4 5 3 -2 -4 -19 -49 -15 -52 4 -2 16 0 16 21 2 15 -10 25 -11 28 -4z m112
-19 c-3 -2 -11 2 -20 9 -12 10 -15 10 -15 0 0 -8 -3 -11 -6 -7 -14 14 7 26 26
15 11 -7 17 -14 15 -17z"/>
<path d="M2077 2012 c-18 -45 -66 -95 -113 -117 -19 -9 -34 -20 -34 -25 0 -23
25 -18 78 17 56 38 102 102 102 145 0 30 -17 20 -33 -20z"/>
<path d="M3740 1934 c0 -16 -2 -17 -10 -4 -7 11 -10 11 -10 2 0 -7 -4 -11 -9
-7 -5 3 -16 -1 -24 -9 -8 -8 -17 -12 -21 -9 -3 4 -6 1 -6 -6 0 -7 -4 -9 -10
-6 -5 3 -10 1 -10 -5 0 -6 -3 -9 -7 -7 -13 7 -55 -12 -49 -22 3 -5 0 -8 -7 -8
-6 0 -27 -3 -44 -8 -30 -7 -38 -16 -34 -38 1 -5 -3 -6 -9 -2 -6 3 -8 11 -5 16
3 5 -1 6 -9 3 -9 -3 -16 -9 -16 -13 0 -3 -14 -7 -32 -8 -18 0 -34 -6 -36 -12
-2 -6 -8 -9 -13 -5 -5 3 -9 -3 -10 -13 0 -11 -3 -13 -6 -5 -2 6 -8 10 -13 7
-4 -3 -25 -7 -46 -11 -22 -3 -45 -11 -53 -17 -12 -9 -13 -9 -7 0 5 9 2 11 -8
7 -9 -3 -14 -9 -12 -13 2 -3 -12 -5 -32 -5 -21 1 -43 -4 -51 -10 -12 -9 -13
-8 -7 2 7 11 4 12 -10 4 -11 -5 -35 -11 -54 -13 -19 -2 -39 -5 -45 -8 -11 -6
-30 -10 -57 -13 -10 -1 -18 -6 -18 -11 0 -4 -4 -6 -9 -2 -13 7 -34 -32 -25
-47 4 -7 3 -8 -4 -4 -13 8 -15 -8 -15 -124 0 -222 8 -427 17 -439 9 -12 8 -13
-3 -6 -11 6 -13 4 -8 -8 4 -10 10 -25 13 -34 5 -15 4 -16 -5 -3 -9 12 -11 9
-8 -15 3 -26 8 -30 31 -28 15 1 25 -1 22 -5 -2 -4 55 -6 127 -4 212 5 232 6
239 17 5 7 8 6 8 -1 0 -6 7 -11 15 -11 8 0 15 5 15 11 0 6 5 4 10 -4 9 -13 10
-13 10 0 0 13 1 13 10 0 7 -11 10 -11 10 -2 0 8 5 10 12 6 20 -13 381 -12 397
0 12 9 13 8 7 -2 -7 -11 -4 -12 13 -2 12 6 19 15 16 21 -4 5 -8 62 -10 127 -1
64 -6 180 -9 257 -3 77 -8 203 -11 280 -6 148 -7 164 -16 180 -4 6 -5 18 -4
27 2 9 -10 31 -26 49 -24 27 -29 29 -29 13z m-80 -149 c0 -33 -28 -64 -44 -48
-10 11 -7 58 6 71 23 23 38 13 38 -23z m49 -63 c1 -17 -8 -27 -31 -37 -18 -7
-36 -11 -40 -9 -16 10 -7 43 12 49 15 5 20 15 20 45 0 51 23 59 32 11 4 -20 7
-46 7 -59z m-129 38 c0 -13 -7 -20 -19 -20 -11 0 -26 -3 -35 -6 -10 -4 -16 -1
-16 8 0 8 12 19 28 25 39 16 42 15 42 -7z m-150 -45 c0 -8 -4 -15 -10 -15 -5
0 -10 7 -10 15 0 8 5 15 10 15 6 0 10 -7 10 -15z m-30 -40 c0 -17 4 -23 14
-19 18 7 29 -25 15 -42 -6 -8 -19 -14 -29 -14 -15 0 -19 10 -22 51 -1 28 -1
52 1 55 9 9 21 -9 21 -31z m180 5 c0 -16 -4 -30 -10 -30 -5 0 -10 14 -10 30 0
17 5 30 10 30 6 0 10 -13 10 -30z m-30 -20 c0 -18 -18 -30 -46 -30 -23 0 -16
40 9 49 27 11 37 6 37 -19z m-210 -51 c0 -12 -12 -21 -37 -28 -60 -17 -73 -14
-73 14 0 20 5 25 25 25 14 0 25 4 25 8 0 5 14 7 30 4 21 -3 30 -10 30 -23z
m374 -46 c7 -53 3 -60 -42 -69 l-32 -6 0 55 c0 58 1 59 56 66 6 0 14 -20 18
-46z m-125 -39 c0 -38 -4 -54 -12 -51 -12 4 -20 70 -12 95 11 31 24 7 24 -44z
m-48 9 c-6 -12 -6 -25 0 -34 15 -25 10 -39 -16 -39 -23 0 -25 3 -25 49 0 44 3
50 23 53 26 4 32 -5 18 -29z m-86 -43 c0 -35 -4 -45 -17 -48 -15 -3 -18 4 -18
48 0 43 3 51 17 48 14 -2 18 -14 18 -48z m-48 -5 c-1 -25 -6 -45 -12 -45 -5 0
-11 20 -12 45 -2 33 1 45 12 45 11 0 14 -12 12 -45z m-67 -15 c0 -46 -2 -50
-24 -50 -22 0 -25 4 -24 43 0 51 3 57 29 57 16 0 19 -7 19 -50z m-65 -11 c0
-41 -2 -44 -27 -47 -27 -3 -28 -2 -28 42 0 34 4 46 18 49 31 8 37 1 37 -44z
m447 -99 c3 -52 1 -60 -14 -60 -13 0 -18 8 -18 30 0 25 -4 30 -25 30 -20 0
-25 5 -25 24 0 25 13 32 57 35 19 1 22 -5 25 -59z m-127 7 c0 -39 -19 -38 -23
2 -3 24 0 32 10 29 7 -3 13 -17 13 -31z m-35 -2 c0 -18 -5 -25 -20 -25 -11 0
-23 -1 -27 -2 -14 -3 -15 34 -1 43 26 17 48 10 48 -16z m118 -62 c-4 -50 -33
-58 -42 -12 -7 37 -1 49 25 49 17 0 20 -6 17 -37z m-90 -34 c-20 -13 -58 -11
-58 4 0 19 64 36 68 18 2 -7 -2 -17 -10 -22z m152 -112 c0 -5 -9 -11 -20 -14
-16 -4 -20 -14 -20 -44 0 -22 -4 -39 -10 -39 -6 0 -10 28 -10 64 0 53 3 65 18
69 17 4 42 -18 42 -36z m-100 -2 c0 -17 -6 -25 -17 -26 -28 -2 -57 -6 -72 -10
-16 -4 -26 23 -17 47 4 9 21 14 56 14 47 0 50 -2 50 -25z m-130 -10 c0 -19 -5
-25 -21 -25 -17 0 -20 -5 -17 -32 2 -19 -2 -33 -9 -35 -10 -4 -13 12 -13 56
l0 61 30 0 c25 0 30 -4 30 -25z m-100 -4 c0 -22 -21 -32 -72 -36 -36 -2 -38
-1 -38 26 0 28 1 29 55 29 47 0 55 -3 55 -19z m-220 -42 c0 -49 -1 -50 -27
-47 -24 3 -28 8 -30 38 -3 49 3 60 32 60 23 0 25 -3 25 -51z m68 6 c0 -25 -4
-46 -9 -46 -42 -6 -44 -4 -46 44 -2 46 -2 47 26 47 28 0 29 -2 29 -45z m474
-47 c-9 -9 -12 -7 -12 12 0 19 3 21 12 12 9 -9 9 -15 0 -24z m-222 -3 c0 -8
-4 -15 -10 -15 -5 0 -10 7 -10 15 0 8 5 15 10 15 6 0 10 -7 10 -15z"/>
<path d="M2145 1240 c-3 -6 1 -7 9 -4 18 7 21 14 7 14 -6 0 -13 -4 -16 -10z"/>
<path d="M1946 1052 c-3 -5 1 -9 9 -9 8 0 12 4 9 9 -3 4 -7 8 -9 8 -2 0 -6 -4
-9 -8z"/>
<path d="M2060 1045 c0 -2 6 -8 13 -14 10 -8 14 -7 14 2 0 8 -6 14 -14 14 -7
0 -13 -1 -13 -2z"/>
<path d="M364 811 c-1 -26 0 -26 62 -27 39 0 61 4 57 10 -4 6 1 7 13 2 15 -5
16 -4 7 5 -6 6 -9 17 -7 24 4 8 -7 12 -35 11 -21 0 -37 -4 -34 -8 2 -5 -1 -8
-6 -8 -6 0 -11 6 -12 13 0 6 -7 -1 -15 -18 -14 -29 -15 -29 -11 -4 2 14 -1 26
-7 26 -6 0 -12 -12 -12 -26z m113 -3 c-7 -11 -14 -13 -18 -7 -5 8 -9 8 -13 0
-4 -6 -12 -9 -17 -5 -16 10 7 30 34 30 21 0 23 -3 14 -18z m-70 -10 c-3 -8 -6
-5 -6 6 -1 11 2 17 5 13 3 -3 4 -12 1 -19z"/>
<path d="M1937 610 c-4 -17 0 -20 27 -20 39 0 50 8 35 27 -17 20 -56 16 -62
-7z"/>
<path d="M0 1608 c1 -392 7 -517 16 -328 4 82 8 134 18 225 21 196 27 333 15
341 -4 2 -6 11 -3 18 8 22 10 135 2 129 -5 -2 -8 2 -8 10 0 8 -9 17 -20 20
-21 5 -21 3 -20 -415z"/>
</g>
</svg>
